<?xml version="1.0" standalone="no"?>
<!DOCTYPE svg PUBLIC "-//W3C//DTD SVG 20010904//EN"
 "http://www.w3.org/TR/2001/REC-SVG-20010904/DTD/svg10.dtd">
<svg version="1.0" xmlns="http://www.w3.org/2000/svg"
 width="100.000000pt" height="100.000000pt" viewBox="0 0 100.000000 100.000000"
 preserveAspectRatio="xMidYMid meet">
<metadata>
Created by potrace 1.14, written by Peter Selinger 2001-2017
</metadata>
<g transform="translate(0.000000,100.000000) scale(0.100000,-0.100000)"
fill="#000000" stroke="none">
<path d="M577 993 c-2 -5 -3 -15 -1 -23 2 -8 6 -28 9 -45 11 -48 13 -248 3
-274 -15 -42 -102 -87 -171 -90 -10 -1 -15 -5 -12 -11 3 -5 -4 -10 -15 -10
-23 0 -72 -33 -70 -47 9 -45 64 -71 156 -74 68 -2 70 -2 69 -28 -1 -14 -6 -36
-13 -47 -6 -12 -8 -24 -5 -28 3 -3 2 -6 -4 -6 -6 0 -13 -9 -16 -20 -8 -31 -10
-34 -24 -48 -7 -7 -13 -20 -13 -28 0 -8 -5 -14 -11 -14 -5 0 -7 -4 -4 -10 3
-5 2 -10 -4 -10 -6 0 -17 -12 -25 -27 -8 -16 -15 -25 -16 -21 0 4 -11 -3 -24
-15 -43 -39 -50 -43 -97 -46 -36 -2 -54 3 -84 24 -34 22 -40 24 -47 10 -7 -11
1 -26 26 -53 20 -20 36 -41 36 -45 0 -4 27 -7 60 -6 32 1 57 6 54 11 -3 4 4 8
15 8 12 0 21 5 21 11 0 5 4 8 9 4 6 -3 14 2 19 11 5 9 13 16 18 17 21 2 81 64
97 99 6 16 15 28 19 28 5 0 8 7 8 15 0 8 5 15 10 15 6 0 9 3 8 7 -1 5 4 19 12
33 7 14 15 32 16 40 1 8 7 30 12 48 6 17 8 32 5 32 -20 0 60 56 83 58 31 2 56
20 48 34 -3 5 -13 8 -22 6 -10 -1 -29 1 -44 5 -24 6 -26 10 -22 52 3 44 25 81
38 68 3 -4 6 -1 6 5 0 7 3 12 8 11 15 -2 52 14 52 23 0 5 4 7 9 4 5 -3 12 1
15 10 3 8 9 14 13 11 10 -4 53 40 45 47 -3 3 0 6 6 6 38 0 -15 109 -70 145
-21 14 -36 30 -33 35 4 6 0 10 -9 10 -8 0 -16 4 -18 9 -1 5 -10 11 -18 13 -8
2 -22 10 -30 18 -23 23 -78 51 -83 43z m186 -175 c15 -16 25 -33 22 -38 -3 -5
0 -12 6 -16 8 -5 8 -8 0 -14 -7 -4 -13 -17 -14 -28 -1 -12 -4 -22 -7 -22 -3 0
-23 -16 -43 -35 -20 -19 -40 -36 -43 -37 -11 -5 -27 37 -30 77 -6 120 -6 164
1 174 8 14 66 -19 108 -61z m-183 -253 c13 8 6 -59 -8 -74 -9 -9 -38 -15 -81
-16 -59 -1 -67 1 -68 18 -1 11 1 16 4 13 4 -3 20 6 36 21 17 16 26 21 22 13
-6 -11 -3 -10 12 3 11 9 29 17 41 17 12 0 22 6 23 13 0 9 2 9 6 -1 2 -6 8 -10
13 -7z"/>
<path d="M236 162 c-5 -9 15 -36 30 -39 6 -1 12 9 12 22 0 18 -6 25 -19 25
-10 0 -20 -3 -23 -8z"/>
</g>
</svg>
